<?xml version="1.0" encoding="UTF-8"?>
<!DOCTYPE svg PUBLIC "-//W3C//DTD SVG 1.1//EN" "http://www.w3.org/Graphics/SVG/1.1/DTD/svg11.dtd">
<!-- Creator: CorelDRAW 2021.5 -->
<svg xmlns="http://www.w3.org/2000/svg" xml:space="preserve" width="7.87402in" height="7.87402in" version="1.1" style="shape-rendering:geometricPrecision; text-rendering:geometricPrecision; image-rendering:optimizeQuality; fill-rule:evenodd; clip-rule:evenodd"
viewBox="0 0 7874.02 7874.02"
 xmlns:xlink="http://www.w3.org/1999/xlink"
 xmlns:xodm="http://www.corel.com/coreldraw/odm/2003">
 <defs>
  <style type="text/css">
   <![CDATA[
    .str0 {stroke:#2B2A29;stroke-width:55.56;stroke-miterlimit:2.61313}
    .fil1 {fill:none}
    .fil0 {fill:#2B2A29;fill-rule:nonzero}
   ]]>
  </style>
 </defs>
 <g id="Layer_x0020_1">
  <metadata id="CorelCorpID_0Corel-Layer"/>
  <path class="fil0" d="M3564.79 874.89l109.97 0 0 -288.14c0,-14.01 0.39,-28.8 1.18,-44.25l-64.8 53.02c-4.19,3.4 -8.38,5.76 -12.57,7.2 -4.19,1.44 -8.25,2.09 -12.17,2.09 -6.81,0 -12.83,-1.44 -18.2,-4.45 -5.37,-3.01 -9.43,-6.15 -12.04,-9.43l-38.49 -50.4 178.3 -150.55 100.54 0 0 484.9 94.26 0 0 88.1 -325.97 0 0 -88.1z"/>
  <path id="_1" class="fil0" d="M4157.82 384.1c28.28,0 53.8,4.19 76.45,12.44 22.65,8.25 41.89,19.77 57.87,34.43 15.97,14.8 28.28,32.33 36.78,52.63 8.51,20.43 12.7,42.81 12.7,67.29 0,20.94 -2.88,40.45 -8.77,58.26 -5.89,17.93 -14.01,34.95 -24.22,51.06 -10.21,16.23 -21.99,31.81 -35.48,47 -13.48,15.06 -27.88,30.37 -43.07,45.95l-111.93 115.07c14.4,-4.58 28.67,-8.38 42.68,-11.13 14.01,-2.75 27.1,-4.06 39.41,-4.06l106.82 0c13.09,0 23.43,3.53 31.03,10.73 7.59,7.2 11.39,16.76 11.39,28.54l0 70.69 -402.16 0 0 -39.28c0,-7.59 1.57,-15.71 4.71,-24.35 3.14,-8.64 8.64,-16.5 16.5,-23.57l164.95 -166.13c14.14,-14.14 26.44,-27.62 36.92,-40.45 10.47,-12.83 19.11,-25.53 25.92,-37.96 6.81,-12.44 11.91,-24.87 15.31,-37.31 3.4,-12.44 5.11,-25.53 5.11,-39.41 0,-22.78 -5.37,-40.32 -16.23,-52.5 -10.87,-12.18 -27.49,-18.2 -49.75,-18.2 -9.17,0 -17.54,1.31 -25.13,3.93 -7.59,2.62 -14.4,6.15 -20.43,10.61 -6.02,4.45 -11.13,9.69 -15.44,15.71 -4.32,6.02 -7.85,12.57 -10.47,19.64 -4.19,11.78 -9.43,20.29 -15.84,25.53 -6.41,5.24 -15.19,7.85 -26.18,7.85 -2.62,0 -5.37,-0.13 -8.38,-0.39 -3.01,-0.26 -6.15,-0.65 -9.3,-1.18l-64.41 -11.26c4.19,-28.54 12.31,-53.54 24.22,-74.88 11.91,-21.2 26.71,-39.01 44.38,-53.15 17.67,-14.14 37.83,-24.74 60.61,-31.68 22.78,-6.94 47.26,-10.47 73.44,-10.47z"/>
  <path class="fil0" d="M4029.39 7116.84c20.69,0 41.11,3.41 61.27,10.21 20.16,6.81 38.23,17.28 54.2,31.42 15.97,14.14 28.93,32.07 38.75,53.68 9.82,21.6 14.66,47.13 14.66,76.45 0,26.83 -4.97,52.1 -14.93,76.19 -9.95,23.96 -23.96,44.9 -42.15,62.84 -18.2,17.93 -40.19,32.2 -65.85,42.68 -25.66,10.47 -54.07,15.71 -85.22,15.71 -31.94,0 -60.61,-5.11 -86.01,-15.19 -25.4,-10.08 -46.87,-24.09 -64.54,-42.15 -17.67,-18.07 -31.16,-39.8 -40.45,-64.93 -9.3,-25.13 -14.01,-52.76 -14.01,-82.87 0,-28.54 5.5,-56.95 16.5,-85.35 11,-28.28 27.23,-57.08 48.7,-86.4l128.82 -174.11c5.76,-7.85 14.4,-14.4 25.92,-19.77 11.52,-5.37 24.61,-8.12 39.27,-8.12l108.4 0 -169.67 203.7c-2.62,2.88 -5.1,5.89 -7.59,8.9 -2.49,3.01 -4.98,6.02 -7.33,8.9 9.16,-3.8 18.85,-6.68 28.93,-8.77 10.08,-1.96 20.81,-3.01 32.33,-3.01zm-127.24 180.27c0,14.14 1.7,26.84 5.11,38.09 3.4,11.26 8.64,20.94 15.71,29.06 7.07,8.12 15.97,14.27 26.7,18.59 10.74,4.32 23.43,6.54 38.09,6.54 12.57,0 24.35,-2.35 35.22,-7.07 10.87,-4.71 20.16,-11.26 28.02,-19.51 7.85,-8.25 14.14,-17.93 18.72,-29.06 4.58,-11.13 6.81,-23.17 6.81,-36.26 0,-14.67 -2.09,-27.76 -6.41,-39.28 -4.32,-11.52 -10.47,-21.21 -18.33,-29.06 -7.85,-7.85 -17.28,-13.87 -28.41,-18.06 -11.13,-4.19 -23.56,-6.29 -37.18,-6.29 -12.3,0 -23.56,2.1 -33.78,6.42 -10.21,4.32 -18.98,10.6 -26.44,18.72 -7.46,8.11 -13.35,17.8 -17.54,29.06 -4.19,11.26 -6.28,23.96 -6.28,38.09z"/>
  <path class="fil0" d="M547.48 3931.46c-18.59,0 -37.18,-3.4 -55.77,-10.08 -18.59,-6.68 -35.35,-16.76 -50.4,-30.37 -15.05,-13.61 -27.36,-30.89 -36.78,-51.58 -9.43,-20.69 -14.14,-45.17 -14.14,-73.44 0,-26.05 4.84,-50.53 14.4,-73.57 9.56,-23.04 23.17,-43.2 40.85,-60.61 17.67,-17.28 38.75,-30.89 63.36,-40.98 24.61,-10.08 52.1,-15.19 82.47,-15.19 30.9,0 58.52,4.71 82.87,14.14 24.35,9.43 45.04,22.65 61.92,39.8 16.89,17.02 29.85,37.18 38.88,60.74 9.04,23.43 13.48,49.35 13.48,77.63 0,18.85 -1.44,36.52 -4.45,53.15 -3.01,16.5 -7.2,32.2 -12.57,47.39 -5.37,15.06 -11.91,29.46 -19.5,43.2 -7.59,13.75 -16.1,27.36 -25.53,40.71l-123.32 175.43c-5.24,7.59 -13.48,14.01 -24.74,19.24 -11.26,5.24 -23.96,7.85 -38.09,7.85l-112.32 0 181.44 -216.92c3.67,-4.45 7.2,-8.64 10.47,-12.7 3.27,-4.06 6.41,-8.25 9.56,-12.44 -11.78,6.15 -24.61,10.87 -38.49,14.01 -13.87,3.01 -28.41,4.58 -43.59,4.58zm124.89 -174.37c0,-13.88 -1.96,-26.18 -6.02,-36.79 -4.06,-10.6 -9.69,-19.37 -16.89,-26.44 -7.2,-7.07 -15.97,-12.44 -26.19,-16.1 -10.21,-3.67 -21.34,-5.5 -33.38,-5.5 -12.31,0 -23.17,2.09 -32.73,6.41 -9.56,4.32 -17.67,10.34 -24.35,17.94 -6.67,7.59 -11.78,16.49 -15.31,26.83 -3.54,10.34 -5.37,21.6 -5.37,33.65 0,57.08 26.44,85.62 79.33,85.62 25.92,0 45.95,-7.86 59.96,-23.44 14.01,-15.57 20.95,-36.26 20.95,-62.18z"/>
  <path class="fil0" d="M7297.41 3645.01c28.28,0 53.41,4.06 75.41,12.04 21.99,7.99 40.58,18.85 55.77,32.47 15.19,13.74 26.7,29.59 34.56,47.52 7.85,18.07 11.78,37.05 11.78,57.08 0,18.07 -1.83,34.04 -5.5,47.91 -3.67,13.74 -9.03,25.79 -16.23,35.87 -7.2,10.08 -16.1,18.72 -26.7,25.79 -10.61,7.2 -22.78,13.09 -36.39,17.81 63.36,21.86 95.04,64.93 95.04,128.81 0,30.37 -5.5,56.69 -16.5,79.2 -11,22.52 -25.66,41.11 -44.12,56.03 -18.46,14.93 -39.93,26.05 -64.28,33.52 -24.35,7.46 -49.74,11.13 -76.19,11.13 -27.23,0 -51.45,-2.88 -72.66,-8.77 -21.2,-5.89 -40.06,-15.06 -56.55,-27.49 -16.5,-12.44 -30.9,-28.28 -43.33,-47.52 -12.44,-19.37 -23.3,-42.28 -32.46,-68.99l54.2 -22.52c4.71,-2.09 9.43,-3.54 14.01,-4.32 4.58,-0.79 9.03,-1.31 13.48,-1.31 8.38,0 15.97,1.7 22.65,4.98 6.68,3.27 11.65,7.98 15.06,14.27 11.78,21.73 24.35,37.44 37.57,47.26 13.22,9.82 28.67,14.66 46.47,14.66 13.61,0 25.53,-2.22 35.61,-6.81 10.08,-4.58 18.46,-10.47 25.14,-17.67 6.68,-7.2 11.65,-15.31 15.06,-24.48 3.4,-9.16 5.1,-18.46 5.1,-27.88 0,-12.18 -0.78,-23.3 -2.48,-32.99 -1.7,-9.82 -6.55,-18.33 -14.4,-25.26 -7.85,-7.07 -19.64,-12.57 -35.48,-16.37 -15.84,-3.8 -37.96,-5.63 -66.24,-5.63l0 -84.04c23.83,0 43.07,-1.83 57.73,-5.5 14.67,-3.67 26.06,-8.77 34.04,-15.19 7.98,-6.41 13.22,-14.14 15.84,-23.3 2.62,-9.16 3.93,-19.24 3.93,-30.24 0,-22.52 -5.37,-39.93 -16.23,-52.1 -10.87,-12.18 -27.49,-18.2 -49.75,-18.2 -9.17,0 -17.54,1.31 -25.13,3.93 -7.59,2.62 -14.4,6.15 -20.43,10.61 -6.02,4.45 -11.13,9.69 -15.44,15.71 -4.32,6.02 -7.85,12.57 -10.47,19.64 -4.19,11.78 -9.43,20.29 -15.84,25.53 -6.41,5.24 -15.19,7.85 -26.18,7.85 -2.62,0 -5.37,-0.13 -8.38,-0.39 -3.01,-0.26 -6.15,-0.65 -9.3,-1.18l-64.41 -11.26c4.19,-28.54 12.31,-53.54 24.22,-74.88 11.91,-21.2 26.7,-39.01 44.38,-53.15 17.67,-14.14 37.83,-24.74 60.61,-31.68 22.78,-6.94 47.26,-10.47 73.44,-10.47z"/>
  <line class="fil1 str0" x1="6530.73" y1="5437.07" x2="7012.79" y2= "5715.39" />
  <line class="fil1 str0" x1="6530.73" y1="2438.13" x2="7012.79" y2= "2159.81" />
  <line class="fil1 str0" x1="5433.03" y1="1340.44" x2="5711.35" y2= "858.38" />
  <line class="fil1 str0" x1="5433.03" y1="6534.76" x2="5711.35" y2= "7016.82" />
  <line class="fil1 str0" x1="1336.61" y1="5437.07" x2="854.55" y2= "5715.39" />
  <line class="fil1 str0" x1="1336.61" y1="2438.13" x2="854.55" y2= "2159.81" />
  <line class="fil1 str0" x1="2434.31" y1="1340.44" x2="2155.99" y2= "858.38" />
  <line class="fil1 str0" x1="2434.31" y1="6534.76" x2="2155.99" y2= "7016.82" />
 </g>
</svg>
